<svg fill="none" height="44" viewBox="0 0 44 44" width="44" xmlns="http://www.w3.org/2000/svg" xmlns:xlink="http://www.w3.org/1999/xlink"><filter id="a" color-interpolation-filters="sRGB" filterUnits="userSpaceOnUse" height="44" width="44" x="0" y="0"><feFlood flood-opacity="0" result="BackgroundImageFix"/><feColorMatrix in="SourceAlpha" type="matrix" values="0 0 0 0 0 0 0 0 0 0 0 0 0 0 0 0 0 0 127 0"/><feOffset dy="4"/><feGaussianBlur stdDeviation="4"/><feColorMatrix type="matrix" values="0 0 0 0 0.172549 0 0 0 0 0.152941 0 0 0 0 0.219608 0 0 0 0.04 0"/><feBlend in2="BackgroundImageFix" mode="normal" result="effect1_dropShadow"/><feBlend in="SourceGraphic" in2="effect1_dropShadow" mode="normal" result="shape"/></filter><mask id="b" height="12" maskUnits="userSpaceOnUse" width="16" x="14" y="12"><path d="m28.6343 12.6343c.3124-.3124.819-.3124 1.1314 0s.3124.819 0 1.1314l-9.6 9.6c-.3124.3124-.819.3124-1.1314 0l-4-4c-.3124-.3124-.3124-.819 0-1.1314s.819-.3124 1.1314 0l3.4343 3.4343z" fill="#fff"/></mask><g filter="url(#a)"><rect fill="#fff" height="28" rx="4" width="28" x="8" y="4"/><rect height="26" rx="3" stroke="#0880ae" stroke-width="2" width="26" x="9" y="5"/></g><path d="m28.6343 12.6343c.3124-.3124.819-.3124 1.1314 0s.3124.819 0 1.1314l-9.6 9.6c-.3124.3124-.819.3124-1.1314 0l-4-4c-.3124-.3124-.3124-.819 0-1.1314s.819-.3124 1.1314 0l3.4343 3.4343z" fill="#000"/><g mask="url(#b)"><path d="m10 6h24v24h-24z" fill="#0880ae"/></g></svg>